<svg xmlns="http://www.w3.org/2000/svg" viewBox="0 0 2048 2048" width="1024" height="1024">
  <defs>
    <clipPath id="appIconMask">
      <rect x="96" y="96" width="1856" height="1856" rx="420" ry="420"/>
    </clipPath>
    <linearGradient id="appIconBg" x1="256" y1="192" x2="1792" y2="1856" gradientUnits="userSpaceOnUse">
      <stop offset="0" stop-color="#151a22"/>
      <stop offset="0.52" stop-color="#080c11"/>
      <stop offset="1" stop-color="#030507"/>
    </linearGradient>
  </defs>
  <g clip-path="url(#appIconMask)">
    <rect x="96" y="96" width="1856" height="1856" rx="420" ry="420" fill="url(#appIconBg)"/>
    <path d="M96 96h1856v1856H96z" fill="none" stroke="rgba(255,255,255,0.12)" stroke-width="28"/>
    <path transform="translate(0,0)" fill="rgb(87,253,124)" d="M 937.74 385.428 C 941.569 384.97 948.204 384.942 952.239 384.928 C 1035 384.639 1098.69 415.028 1156.64 471.185 C 1210.73 455.018 1268.35 454.895 1322.51 470.832 C 1438.46 505.288 1524.63 614.877 1535.79 734.478 C 1538.72 765.765 1537.02 804.833 1527.89 834.985 C 1574.54 875.793 1605.46 927.473 1616.87 988.507 C 1647.5 1152.41 1557.65 1304.99 1389.92 1337.29 C 1377.5 1385.44 1353.28 1429.73 1319.44 1466.18 C 1265.98 1523.19 1191.88 1556.37 1113.75 1558.31 C 1027.55 1560.96 955.875 1530.23 895.189 1470.49 C 835.136 1489.23 770.661 1488.27 711.197 1467.73 C 637.771 1441.94 577.555 1388.11 543.735 1318.01 C 510.858 1250.17 506.482 1172 531.584 1100.91 C 523.168 1093.21 514.572 1085.55 506.806 1077.25 C 397.509 960.402 420.688 773.175 539.492 672.395 C 579.486 638.468 619.198 621.401 669.68 610.393 C 702.77 482.03 805.719 395.77 937.74 385.428 z"/>
    <path transform="translate(0,0)" fill="rgb(9,13,18)" d="M 936.693 413.422 C 940.973 412.936 946.944 412.9 951.402 412.806 C 1011.69 411.772 1070.27 432.813 1116.13 471.967 C 1124.47 478.955 1141.09 499.445 1149.74 499.971 C 1159.63 500.573 1183.76 492.618 1194.67 490.767 C 1277.39 476.733 1356 500.62 1417.83 557.604 C 1480.4 615.049 1513.42 697.854 1507.55 782.593 C 1506.02 802.973 1501.35 821.617 1498.34 841.265 C 1497.25 848.427 1516.04 861.375 1521.59 866.985 C 1661.7 1008.55 1590.8 1276.32 1387.1 1309.38 C 1359.21 1313.91 1363.77 1327.22 1355.83 1351.57 C 1353.39 1359.18 1350.5 1366.63 1347.2 1373.91 C 1334.66 1401.32 1319.61 1424.79 1298.82 1446.76 C 1250.93 1498 1184.6 1528.03 1114.5 1530.21 C 1043.55 1532.02 978.642 1510.22 925.974 1461.63 C 922.135 1458.09 907.282 1440.6 902.335 1441.16 C 888.828 1442.69 874.771 1447.66 861.273 1450.4 C 852.748 1452.12 844.142 1453.39 835.488 1454.23 C 649.725 1472.18 503.079 1303.09 554.565 1123.02 C 566.763 1080.37 564.451 1094.97 535.401 1066.6 C 495.262 1026.67 470.482 973.878 465.416 917.492 C 456.19 804.2 520.35 697.672 624.806 652.848 C 630.452 650.466 643.93 645.243 649.57 644.298 C 709.901 634.191 688.627 628.146 708.87 580.236 C 719.812 554.004 734.581 529.54 752.698 507.64 C 799.994 451.537 863.943 419.684 936.693 413.422 z"/>
    <path transform="translate(0,0)" fill="rgb(87,253,124)" d="M 766.151 782.184 C 802.834 778.943 811.675 801.584 827.646 828.244 L 855.115 873.856 L 888.546 928.679 C 904.79 955.048 926.41 980.57 909 1011.9 C 903.37 1022.03 897.2 1032 891.221 1041.92 L 851.939 1106.26 L 824.54 1150.83 C 813.078 1169.41 808.373 1181.93 786.528 1189.89 C 773.681 1192.79 760.989 1192.04 749.441 1185.19 C 738.959 1178.94 731.433 1168.73 728.562 1156.87 C 726.356 1148.37 726.717 1139.41 729.6 1131.11 C 733.732 1119.46 753.254 1089.36 760.381 1077.76 L 815.966 987.281 C 797.566 954.763 775.5 922.032 756.604 889.598 C 748.845 874.178 733.264 856.463 728.787 839.961 C 720.931 811.007 739.414 788.169 766.151 782.184 z"/>
    <path transform="translate(0,0)" fill="rgb(9,13,18)" d="M 771.526 808.21 C 776.687 808.512 783.913 810.174 786.804 814.449 C 799.788 833.646 813.566 857.671 825.398 877.302 L 863.763 940.544 C 871.306 952.954 879.115 965.428 886.039 978.182 C 887.573 980.934 888.363 983.694 888.111 986.867 C 887.91 989.389 887.778 992.537 886.626 994.862 C 881.467 1005.28 875.038 1015.28 868.983 1025.23 L 835.119 1080.77 L 803.992 1131.94 C 797.023 1143.41 790.621 1158.63 778.539 1164.27 C 773.212 1165.32 767.016 1164.63 762.178 1162.1 C 758.734 1160.3 756.767 1157.27 755.778 1153.6 C 754.16 1147.61 755.328 1141.44 757.716 1135.83 C 763.133 1123.11 772.748 1110.65 779.992 1098.78 C 800.109 1065.83 821.634 1033.16 840.614 999.575 C 842.582 996.093 845.986 990.176 845.919 986.183 C 845.813 979.783 783.076 880.58 776.148 869.213 C 769.356 858.069 758.085 843.696 754.926 831.025 C 753.832 826.637 754.605 821.562 756.992 817.712 C 760.421 812.182 765.449 809.786 771.526 808.21 z"/>
    <path transform="translate(0,0)" fill="rgb(87,253,124)" d="M 1067.95 1098.3 C 1081.77 1097.51 1100.45 1098.11 1114.83 1098.12 L 1200.03 1098.12 L 1267.64 1098.11 C 1285.44 1098.09 1312.99 1095.35 1327.92 1105.19 C 1337.74 1111.56 1344.53 1121.67 1346.72 1133.18 C 1348.97 1144.76 1346.41 1156.75 1339.64 1166.41 C 1331.84 1177.32 1322.09 1182.13 1309.25 1184.06 C 1261.14 1185.57 1206.84 1184.45 1158.25 1184.5 L 1101.7 1184.54 C 1084.72 1184.54 1060.16 1186.88 1045.98 1177.06 C 1036.27 1170.29 1029.75 1159.84 1027.94 1148.13 C 1026.25 1136.48 1029.28 1124.64 1036.35 1115.23 C 1044.6 1104.23 1054.96 1100.22 1067.95 1098.3 z"/>
    <path transform="translate(0,0)" fill="rgb(9,13,18)" d="M 1066.87 1125.1 C 1081.9 1124.28 1103.74 1124.92 1119.25 1124.91 L 1221.32 1124.9 C 1249.36 1124.89 1280.31 1123.73 1307.9 1125.68 C 1321.76 1126.66 1326.25 1147.92 1308.09 1157.64 C 1291.49 1158.57 1268.53 1157.92 1251.52 1157.91 L 1146.27 1157.88 C 1120.78 1157.88 1092.13 1158.98 1067.07 1157.18 C 1053.02 1156.18 1049.19 1134.91 1066.87 1125.1 z"/>
  </g>
</svg>
